<mxfile host="app.diagrams.net" agent="Mozilla/5.0 (Windows NT 10.0; Win64; x64) AppleWebKit/537.36 (KHTML, like Gecko) Chrome/127.0.0.0 Safari/537.36" version="24.7.6">
  <diagram id="C5RBs43oDa-KdzZeNtuy" name="Page-1">
    <mxGraphModel dx="1434" dy="746" grid="1" gridSize="10" guides="1" tooltips="1" connect="1" arrows="1" fold="1" page="1" pageScale="1" pageWidth="827" pageHeight="1169" math="0" shadow="0">
      <root>
        <mxCell id="WIyWlLk6GJQsqaUBKTNV-0" />
        <mxCell id="WIyWlLk6GJQsqaUBKTNV-1" parent="WIyWlLk6GJQsqaUBKTNV-0" />
        <mxCell id="7BW_ODnPh8cm5f2QEy-q-2" value="" style="edgeStyle=orthogonalEdgeStyle;rounded=0;orthogonalLoop=1;jettySize=auto;html=1;" edge="1" parent="WIyWlLk6GJQsqaUBKTNV-1" source="7BW_ODnPh8cm5f2QEy-q-0" target="7BW_ODnPh8cm5f2QEy-q-1">
          <mxGeometry relative="1" as="geometry" />
        </mxCell>
        <mxCell id="7BW_ODnPh8cm5f2QEy-q-4" style="edgeStyle=orthogonalEdgeStyle;rounded=0;orthogonalLoop=1;jettySize=auto;html=1;exitX=0;exitY=0.5;exitDx=0;exitDy=0;" edge="1" parent="WIyWlLk6GJQsqaUBKTNV-1" source="7BW_ODnPh8cm5f2QEy-q-0">
          <mxGeometry relative="1" as="geometry">
            <mxPoint x="80" y="360" as="targetPoint" />
          </mxGeometry>
        </mxCell>
        <mxCell id="7BW_ODnPh8cm5f2QEy-q-16" style="edgeStyle=orthogonalEdgeStyle;rounded=0;orthogonalLoop=1;jettySize=auto;html=1;exitX=1;exitY=0.5;exitDx=0;exitDy=0;" edge="1" parent="WIyWlLk6GJQsqaUBKTNV-1" source="7BW_ODnPh8cm5f2QEy-q-0">
          <mxGeometry relative="1" as="geometry">
            <mxPoint x="440" y="240" as="targetPoint" />
          </mxGeometry>
        </mxCell>
        <mxCell id="7BW_ODnPh8cm5f2QEy-q-17" style="edgeStyle=orthogonalEdgeStyle;rounded=0;orthogonalLoop=1;jettySize=auto;html=1;exitX=1;exitY=0.5;exitDx=0;exitDy=0;" edge="1" parent="WIyWlLk6GJQsqaUBKTNV-1">
          <mxGeometry relative="1" as="geometry">
            <mxPoint x="439" y="160" as="targetPoint" />
            <mxPoint x="359" y="240" as="sourcePoint" />
            <Array as="points">
              <mxPoint x="400" y="240" />
            </Array>
          </mxGeometry>
        </mxCell>
        <mxCell id="7BW_ODnPh8cm5f2QEy-q-0" value="SpearmanCharacter" style="rounded=0;whiteSpace=wrap;html=1;" vertex="1" parent="WIyWlLk6GJQsqaUBKTNV-1">
          <mxGeometry x="200" y="200" width="160" height="80" as="geometry" />
        </mxCell>
        <mxCell id="7BW_ODnPh8cm5f2QEy-q-1" value="SpearmanCharacterAnimInstance" style="whiteSpace=wrap;html=1;rounded=0;" vertex="1" parent="WIyWlLk6GJQsqaUBKTNV-1">
          <mxGeometry x="170" y="50" width="220" height="60" as="geometry" />
        </mxCell>
        <mxCell id="7BW_ODnPh8cm5f2QEy-q-8" style="edgeStyle=orthogonalEdgeStyle;rounded=0;orthogonalLoop=1;jettySize=auto;html=1;exitX=1;exitY=0.5;exitDx=0;exitDy=0;" edge="1" parent="WIyWlLk6GJQsqaUBKTNV-1" source="7BW_ODnPh8cm5f2QEy-q-6" target="7BW_ODnPh8cm5f2QEy-q-9">
          <mxGeometry relative="1" as="geometry">
            <mxPoint x="200" y="480" as="targetPoint" />
          </mxGeometry>
        </mxCell>
        <mxCell id="7BW_ODnPh8cm5f2QEy-q-30" style="edgeStyle=orthogonalEdgeStyle;rounded=0;orthogonalLoop=1;jettySize=auto;html=1;exitX=0.5;exitY=1;exitDx=0;exitDy=0;" edge="1" parent="WIyWlLk6GJQsqaUBKTNV-1" target="7BW_ODnPh8cm5f2QEy-q-31">
          <mxGeometry relative="1" as="geometry">
            <mxPoint x="140" y="620" as="targetPoint" />
            <mxPoint x="60" y="380" as="sourcePoint" />
            <Array as="points">
              <mxPoint x="60" y="620" />
            </Array>
          </mxGeometry>
        </mxCell>
        <mxCell id="7BW_ODnPh8cm5f2QEy-q-6" value="SpearmanPlayerController" style="rounded=0;whiteSpace=wrap;html=1;" vertex="1" parent="WIyWlLk6GJQsqaUBKTNV-1">
          <mxGeometry y="360" width="160" height="60" as="geometry" />
        </mxCell>
        <mxCell id="7BW_ODnPh8cm5f2QEy-q-10" style="edgeStyle=orthogonalEdgeStyle;rounded=0;orthogonalLoop=1;jettySize=auto;html=1;exitX=1;exitY=0.5;exitDx=0;exitDy=0;" edge="1" parent="WIyWlLk6GJQsqaUBKTNV-1" source="7BW_ODnPh8cm5f2QEy-q-9" target="7BW_ODnPh8cm5f2QEy-q-11">
          <mxGeometry relative="1" as="geometry">
            <mxPoint x="320" y="500" as="targetPoint" />
          </mxGeometry>
        </mxCell>
        <mxCell id="7BW_ODnPh8cm5f2QEy-q-9" value="SpearmanHUD" style="rounded=0;whiteSpace=wrap;html=1;" vertex="1" parent="WIyWlLk6GJQsqaUBKTNV-1">
          <mxGeometry x="140" y="470" width="120" height="60" as="geometry" />
        </mxCell>
        <mxCell id="7BW_ODnPh8cm5f2QEy-q-12" style="edgeStyle=orthogonalEdgeStyle;rounded=0;orthogonalLoop=1;jettySize=auto;html=1;exitX=1;exitY=0.5;exitDx=0;exitDy=0;" edge="1" parent="WIyWlLk6GJQsqaUBKTNV-1" source="7BW_ODnPh8cm5f2QEy-q-11" target="7BW_ODnPh8cm5f2QEy-q-13">
          <mxGeometry relative="1" as="geometry">
            <mxPoint x="480" y="500" as="targetPoint" />
          </mxGeometry>
        </mxCell>
        <mxCell id="7BW_ODnPh8cm5f2QEy-q-11" value="CharacterOverlay" style="rounded=0;whiteSpace=wrap;html=1;" vertex="1" parent="WIyWlLk6GJQsqaUBKTNV-1">
          <mxGeometry x="310" y="470" width="120" height="60" as="geometry" />
        </mxCell>
        <mxCell id="7BW_ODnPh8cm5f2QEy-q-14" style="edgeStyle=orthogonalEdgeStyle;rounded=0;orthogonalLoop=1;jettySize=auto;html=1;exitX=1;exitY=0.5;exitDx=0;exitDy=0;" edge="1" parent="WIyWlLk6GJQsqaUBKTNV-1" source="7BW_ODnPh8cm5f2QEy-q-13">
          <mxGeometry relative="1" as="geometry">
            <mxPoint x="610" y="500" as="targetPoint" />
          </mxGeometry>
        </mxCell>
        <mxCell id="7BW_ODnPh8cm5f2QEy-q-13" value="S1&lt;span style=&quot;background-color: initial;&quot;&gt;InventoryWidget&lt;/span&gt;" style="rounded=0;whiteSpace=wrap;html=1;" vertex="1" parent="WIyWlLk6GJQsqaUBKTNV-1">
          <mxGeometry x="460" y="470" width="120" height="60" as="geometry" />
        </mxCell>
        <mxCell id="7BW_ODnPh8cm5f2QEy-q-15" value="S1InventorySlotsWidget" style="rounded=0;whiteSpace=wrap;html=1;" vertex="1" parent="WIyWlLk6GJQsqaUBKTNV-1">
          <mxGeometry x="610" y="470" width="140" height="60" as="geometry" />
        </mxCell>
        <mxCell id="7BW_ODnPh8cm5f2QEy-q-23" value="" style="endArrow=none;html=1;rounded=0;" edge="1" parent="WIyWlLk6GJQsqaUBKTNV-1">
          <mxGeometry width="50" height="50" relative="1" as="geometry">
            <mxPoint x="400" y="320" as="sourcePoint" />
            <mxPoint x="400" y="240" as="targetPoint" />
          </mxGeometry>
        </mxCell>
        <mxCell id="7BW_ODnPh8cm5f2QEy-q-24" value="" style="endArrow=classic;html=1;rounded=0;" edge="1" parent="WIyWlLk6GJQsqaUBKTNV-1">
          <mxGeometry width="50" height="50" relative="1" as="geometry">
            <mxPoint x="400" y="320" as="sourcePoint" />
            <mxPoint x="440" y="320" as="targetPoint" />
          </mxGeometry>
        </mxCell>
        <mxCell id="7BW_ODnPh8cm5f2QEy-q-28" style="edgeStyle=orthogonalEdgeStyle;rounded=0;orthogonalLoop=1;jettySize=auto;html=1;exitX=1;exitY=0.5;exitDx=0;exitDy=0;" edge="1" parent="WIyWlLk6GJQsqaUBKTNV-1" source="7BW_ODnPh8cm5f2QEy-q-25">
          <mxGeometry relative="1" as="geometry">
            <mxPoint x="640" y="160" as="targetPoint" />
          </mxGeometry>
        </mxCell>
        <mxCell id="7BW_ODnPh8cm5f2QEy-q-25" value="BuffComponent" style="rounded=0;whiteSpace=wrap;html=1;" vertex="1" parent="WIyWlLk6GJQsqaUBKTNV-1">
          <mxGeometry x="440" y="130" width="160" height="60" as="geometry" />
        </mxCell>
        <mxCell id="7BW_ODnPh8cm5f2QEy-q-46" style="edgeStyle=orthogonalEdgeStyle;rounded=0;orthogonalLoop=1;jettySize=auto;html=1;exitX=1;exitY=0.5;exitDx=0;exitDy=0;entryX=0;entryY=0.5;entryDx=0;entryDy=0;" edge="1" parent="WIyWlLk6GJQsqaUBKTNV-1" source="7BW_ODnPh8cm5f2QEy-q-26" target="7BW_ODnPh8cm5f2QEy-q-41">
          <mxGeometry relative="1" as="geometry" />
        </mxCell>
        <mxCell id="7BW_ODnPh8cm5f2QEy-q-50" style="edgeStyle=orthogonalEdgeStyle;rounded=0;orthogonalLoop=1;jettySize=auto;html=1;exitX=1;exitY=1;exitDx=0;exitDy=0;entryX=0;entryY=0.5;entryDx=0;entryDy=0;" edge="1" parent="WIyWlLk6GJQsqaUBKTNV-1" source="7BW_ODnPh8cm5f2QEy-q-26" target="7BW_ODnPh8cm5f2QEy-q-49">
          <mxGeometry relative="1" as="geometry" />
        </mxCell>
        <mxCell id="7BW_ODnPh8cm5f2QEy-q-53" style="edgeStyle=orthogonalEdgeStyle;rounded=0;orthogonalLoop=1;jettySize=auto;html=1;exitX=1;exitY=1;exitDx=0;exitDy=0;entryX=0;entryY=0.5;entryDx=0;entryDy=0;" edge="1" parent="WIyWlLk6GJQsqaUBKTNV-1" source="7BW_ODnPh8cm5f2QEy-q-26" target="7BW_ODnPh8cm5f2QEy-q-52">
          <mxGeometry relative="1" as="geometry" />
        </mxCell>
        <mxCell id="7BW_ODnPh8cm5f2QEy-q-56" style="edgeStyle=orthogonalEdgeStyle;rounded=0;orthogonalLoop=1;jettySize=auto;html=1;exitX=1;exitY=0.75;exitDx=0;exitDy=0;entryX=0;entryY=0.5;entryDx=0;entryDy=0;" edge="1" parent="WIyWlLk6GJQsqaUBKTNV-1" source="7BW_ODnPh8cm5f2QEy-q-26" target="7BW_ODnPh8cm5f2QEy-q-55">
          <mxGeometry relative="1" as="geometry" />
        </mxCell>
        <mxCell id="7BW_ODnPh8cm5f2QEy-q-26" value="LagCompensationComponent" style="rounded=0;whiteSpace=wrap;html=1;" vertex="1" parent="WIyWlLk6GJQsqaUBKTNV-1">
          <mxGeometry x="440" y="210" width="170" height="60" as="geometry" />
        </mxCell>
        <mxCell id="7BW_ODnPh8cm5f2QEy-q-27" value="CombatComponent" style="rounded=0;whiteSpace=wrap;html=1;" vertex="1" parent="WIyWlLk6GJQsqaUBKTNV-1">
          <mxGeometry x="440" y="290" width="120" height="60" as="geometry" />
        </mxCell>
        <mxCell id="7BW_ODnPh8cm5f2QEy-q-35" style="edgeStyle=orthogonalEdgeStyle;rounded=0;orthogonalLoop=1;jettySize=auto;html=1;exitX=1;exitY=0.5;exitDx=0;exitDy=0;entryX=0;entryY=0.5;entryDx=0;entryDy=0;" edge="1" parent="WIyWlLk6GJQsqaUBKTNV-1" source="7BW_ODnPh8cm5f2QEy-q-31">
          <mxGeometry relative="1" as="geometry">
            <mxPoint x="620" y="615" as="targetPoint" />
          </mxGeometry>
        </mxCell>
        <mxCell id="7BW_ODnPh8cm5f2QEy-q-38" value="Handle Inventory Widget" style="edgeLabel;html=1;align=center;verticalAlign=middle;resizable=0;points=[];" vertex="1" connectable="0" parent="7BW_ODnPh8cm5f2QEy-q-35">
          <mxGeometry x="0.9944" y="-1" relative="1" as="geometry">
            <mxPoint y="-1" as="offset" />
          </mxGeometry>
        </mxCell>
        <mxCell id="7BW_ODnPh8cm5f2QEy-q-31" value="InventoryArray" style="rounded=0;whiteSpace=wrap;html=1;" vertex="1" parent="WIyWlLk6GJQsqaUBKTNV-1">
          <mxGeometry x="140" y="585" width="120" height="60" as="geometry" />
        </mxCell>
        <mxCell id="7BW_ODnPh8cm5f2QEy-q-37" style="edgeStyle=orthogonalEdgeStyle;rounded=0;orthogonalLoop=1;jettySize=auto;html=1;" edge="1" parent="WIyWlLk6GJQsqaUBKTNV-1">
          <mxGeometry relative="1" as="geometry">
            <mxPoint x="730" y="540" as="targetPoint" />
            <mxPoint x="680" y="620" as="sourcePoint" />
          </mxGeometry>
        </mxCell>
        <mxCell id="7BW_ODnPh8cm5f2QEy-q-40" value="Heal" style="ellipse;whiteSpace=wrap;html=1;" vertex="1" parent="WIyWlLk6GJQsqaUBKTNV-1">
          <mxGeometry x="640" y="120" width="120" height="80" as="geometry" />
        </mxCell>
        <mxCell id="7BW_ODnPh8cm5f2QEy-q-41" value="ServerRewindRequest(ForParrying)" style="ellipse;whiteSpace=wrap;html=1;" vertex="1" parent="WIyWlLk6GJQsqaUBKTNV-1">
          <mxGeometry x="677" y="210" width="223" height="60" as="geometry" />
        </mxCell>
        <mxCell id="7BW_ODnPh8cm5f2QEy-q-49" value="Rewind" style="ellipse;whiteSpace=wrap;html=1;" vertex="1" parent="WIyWlLk6GJQsqaUBKTNV-1">
          <mxGeometry x="677" y="325" width="150" height="35" as="geometry" />
        </mxCell>
        <mxCell id="7BW_ODnPh8cm5f2QEy-q-52" value="SimulateHit" style="ellipse;whiteSpace=wrap;html=1;" vertex="1" parent="WIyWlLk6GJQsqaUBKTNV-1">
          <mxGeometry x="677" y="375" width="150" height="30" as="geometry" />
        </mxCell>
        <mxCell id="7BW_ODnPh8cm5f2QEy-q-55" value="GetInterpFrame" style="ellipse;whiteSpace=wrap;html=1;" vertex="1" parent="WIyWlLk6GJQsqaUBKTNV-1">
          <mxGeometry x="680" y="280" width="147" height="35" as="geometry" />
        </mxCell>
        <mxCell id="7BW_ODnPh8cm5f2QEy-q-59" style="edgeStyle=orthogonalEdgeStyle;rounded=0;orthogonalLoop=1;jettySize=auto;html=1;exitX=0.5;exitY=1;exitDx=0;exitDy=0;" edge="1" parent="WIyWlLk6GJQsqaUBKTNV-1" source="7BW_ODnPh8cm5f2QEy-q-58" target="7BW_ODnPh8cm5f2QEy-q-60">
          <mxGeometry relative="1" as="geometry">
            <mxPoint x="1020" y="170" as="targetPoint" />
          </mxGeometry>
        </mxCell>
        <mxCell id="7BW_ODnPh8cm5f2QEy-q-58" value="UObject" style="rounded=0;whiteSpace=wrap;html=1;" vertex="1" parent="WIyWlLk6GJQsqaUBKTNV-1">
          <mxGeometry x="960" y="60" width="120" height="60" as="geometry" />
        </mxCell>
        <mxCell id="7BW_ODnPh8cm5f2QEy-q-61" style="edgeStyle=orthogonalEdgeStyle;rounded=0;orthogonalLoop=1;jettySize=auto;html=1;exitX=0.5;exitY=1;exitDx=0;exitDy=0;" edge="1" parent="WIyWlLk6GJQsqaUBKTNV-1" source="7BW_ODnPh8cm5f2QEy-q-60" target="7BW_ODnPh8cm5f2QEy-q-62">
          <mxGeometry relative="1" as="geometry">
            <mxPoint x="1020" y="240" as="targetPoint" />
          </mxGeometry>
        </mxCell>
        <mxCell id="7BW_ODnPh8cm5f2QEy-q-60" value="NetworkObject" style="rounded=0;whiteSpace=wrap;html=1;" vertex="1" parent="WIyWlLk6GJQsqaUBKTNV-1">
          <mxGeometry x="960" y="140" width="120" height="60" as="geometry" />
        </mxCell>
        <mxCell id="7BW_ODnPh8cm5f2QEy-q-62" value="ItemInstance" style="rounded=0;whiteSpace=wrap;html=1;" vertex="1" parent="WIyWlLk6GJQsqaUBKTNV-1">
          <mxGeometry x="960" y="220" width="120" height="60" as="geometry" />
        </mxCell>
        <mxCell id="7BW_ODnPh8cm5f2QEy-q-64" value="Item" style="rounded=0;whiteSpace=wrap;html=1;" vertex="1" parent="WIyWlLk6GJQsqaUBKTNV-1">
          <mxGeometry x="1121" y="310" width="120" height="60" as="geometry" />
        </mxCell>
        <mxCell id="7BW_ODnPh8cm5f2QEy-q-65" value="" style="endArrow=none;dashed=1;html=1;dashPattern=1 3;strokeWidth=2;rounded=0;entryX=0.5;entryY=0;entryDx=0;entryDy=0;" edge="1" parent="WIyWlLk6GJQsqaUBKTNV-1" target="7BW_ODnPh8cm5f2QEy-q-64">
          <mxGeometry width="50" height="50" relative="1" as="geometry">
            <mxPoint x="1080" y="250" as="sourcePoint" />
            <mxPoint x="1130" y="200" as="targetPoint" />
          </mxGeometry>
        </mxCell>
        <mxCell id="7BW_ODnPh8cm5f2QEy-q-67" style="edgeStyle=orthogonalEdgeStyle;rounded=0;orthogonalLoop=1;jettySize=auto;html=1;exitX=0.5;exitY=1;exitDx=0;exitDy=0;" edge="1" parent="WIyWlLk6GJQsqaUBKTNV-1" source="7BW_ODnPh8cm5f2QEy-q-66" target="7BW_ODnPh8cm5f2QEy-q-68">
          <mxGeometry relative="1" as="geometry">
            <mxPoint x="1390" y="360" as="targetPoint" />
          </mxGeometry>
        </mxCell>
        <mxCell id="7BW_ODnPh8cm5f2QEy-q-66" value="BasicMonster" style="rounded=0;whiteSpace=wrap;html=1;" vertex="1" parent="WIyWlLk6GJQsqaUBKTNV-1">
          <mxGeometry x="1330" y="250" width="120" height="60" as="geometry" />
        </mxCell>
        <mxCell id="7BW_ODnPh8cm5f2QEy-q-69" style="edgeStyle=orthogonalEdgeStyle;rounded=0;orthogonalLoop=1;jettySize=auto;html=1;exitX=0.5;exitY=1;exitDx=0;exitDy=0;" edge="1" parent="WIyWlLk6GJQsqaUBKTNV-1" source="7BW_ODnPh8cm5f2QEy-q-68" target="7BW_ODnPh8cm5f2QEy-q-70">
          <mxGeometry relative="1" as="geometry">
            <mxPoint x="1390" y="480" as="targetPoint" />
          </mxGeometry>
        </mxCell>
        <mxCell id="7BW_ODnPh8cm5f2QEy-q-68" value="Death" style="ellipse;whiteSpace=wrap;html=1;" vertex="1" parent="WIyWlLk6GJQsqaUBKTNV-1">
          <mxGeometry x="1330" y="350" width="120" height="60" as="geometry" />
        </mxCell>
        <mxCell id="7BW_ODnPh8cm5f2QEy-q-71" style="edgeStyle=orthogonalEdgeStyle;rounded=0;orthogonalLoop=1;jettySize=auto;html=1;exitX=0;exitY=0.5;exitDx=0;exitDy=0;" edge="1" parent="WIyWlLk6GJQsqaUBKTNV-1" source="7BW_ODnPh8cm5f2QEy-q-70">
          <mxGeometry relative="1" as="geometry">
            <mxPoint x="1180" y="390" as="targetPoint" />
          </mxGeometry>
        </mxCell>
        <mxCell id="7BW_ODnPh8cm5f2QEy-q-70" value="DropItems" style="ellipse;whiteSpace=wrap;html=1;" vertex="1" parent="WIyWlLk6GJQsqaUBKTNV-1">
          <mxGeometry x="1330" y="440" width="120" height="60" as="geometry" />
        </mxCell>
        <mxCell id="7BW_ODnPh8cm5f2QEy-q-73" value="" style="curved=1;endArrow=classic;html=1;rounded=0;" edge="1" parent="WIyWlLk6GJQsqaUBKTNV-1">
          <mxGeometry width="50" height="50" relative="1" as="geometry">
            <mxPoint x="190" y="645" as="sourcePoint" />
            <mxPoint x="1100" y="390" as="targetPoint" />
            <Array as="points">
              <mxPoint x="240" y="645" />
              <mxPoint x="410" y="830" />
              <mxPoint x="840" y="680" />
            </Array>
          </mxGeometry>
        </mxCell>
        <mxCell id="7BW_ODnPh8cm5f2QEy-q-75" value="" style="endArrow=none;dashed=1;html=1;dashPattern=1 3;strokeWidth=2;rounded=0;" edge="1" parent="WIyWlLk6GJQsqaUBKTNV-1" target="7BW_ODnPh8cm5f2QEy-q-76">
          <mxGeometry width="50" height="50" relative="1" as="geometry">
            <mxPoint x="160" y="360" as="sourcePoint" />
            <mxPoint x="300" y="390" as="targetPoint" />
          </mxGeometry>
        </mxCell>
        <mxCell id="7BW_ODnPh8cm5f2QEy-q-77" style="edgeStyle=orthogonalEdgeStyle;rounded=0;orthogonalLoop=1;jettySize=auto;html=1;exitX=1;exitY=0.5;exitDx=0;exitDy=0;" edge="1" parent="WIyWlLk6GJQsqaUBKTNV-1" source="7BW_ODnPh8cm5f2QEy-q-76" target="7BW_ODnPh8cm5f2QEy-q-78">
          <mxGeometry relative="1" as="geometry">
            <mxPoint x="470" y="405" as="targetPoint" />
          </mxGeometry>
        </mxCell>
        <mxCell id="7BW_ODnPh8cm5f2QEy-q-76" value="Weapon" style="rounded=0;whiteSpace=wrap;html=1;" vertex="1" parent="WIyWlLk6GJQsqaUBKTNV-1">
          <mxGeometry x="310" y="375" width="120" height="60" as="geometry" />
        </mxCell>
        <mxCell id="7BW_ODnPh8cm5f2QEy-q-78" value="AttackCollisionCheckByRewind" style="ellipse;whiteSpace=wrap;html=1;" vertex="1" parent="WIyWlLk6GJQsqaUBKTNV-1">
          <mxGeometry x="480" y="420" width="200" height="35" as="geometry" />
        </mxCell>
        <mxCell id="7BW_ODnPh8cm5f2QEy-q-79" value="" style="curved=1;endArrow=classic;html=1;rounded=0;" edge="1" parent="WIyWlLk6GJQsqaUBKTNV-1">
          <mxGeometry width="50" height="50" relative="1" as="geometry">
            <mxPoint x="680" y="440" as="sourcePoint" />
            <mxPoint x="890" y="290" as="targetPoint" />
            <Array as="points">
              <mxPoint x="730" y="440" />
              <mxPoint x="840" y="470" />
              <mxPoint x="980" y="420" />
            </Array>
          </mxGeometry>
        </mxCell>
      </root>
    </mxGraphModel>
  </diagram>
</mxfile>
